<svg width="20" height="11" viewBox="0 0 20 11" fill="none" xmlns="http://www.w3.org/2000/svg">
<path d="M7.78498 10.6521L6.17581 10.2205L6.83165 7.77129C5.84995 7.40923 4.93758 6.88159 4.13415 6.21129L2.33998 8.00629L1.16081 6.82712L2.95581 5.03295C1.94254 3.81942 1.26172 2.36359 0.97998 0.807955L2.61998 0.508789C3.25248 4.01046 6.31581 6.66712 9.99998 6.66712C13.6833 6.66712 16.7475 4.01046 17.38 0.508789L19.02 0.807122C18.7386 2.36297 18.0581 3.8191 17.045 5.03295L18.8391 6.82712L17.66 8.00629L15.8658 6.21129C15.0624 6.88159 14.15 7.40923 13.1683 7.77129L13.8241 10.2213L12.215 10.6521L11.5583 8.20212C10.5269 8.37885 9.47302 8.37885 8.44165 8.20212L7.78498 10.6521Z" fill="#0D1126" fill-opacity="0.4"/>
</svg>
