<svg width="24" height="19" viewBox="0 0 24 19" fill="none" xmlns="http://www.w3.org/2000/svg">
<path d="M1.48098 8.27471C1.48098 8.27471 12.0961 4.10697 15.7702 2.6387C17.184 2.04987 21.9683 0.168647 21.9683 0.168647C21.9683 0.168647 24.1728 -0.657254 23.9891 1.34632C23.9252 2.17222 23.438 5.04758 22.9428 8.16C22.208 12.5648 21.4092 17.3826 21.4092 17.3826C21.4092 17.3826 21.2894 18.7361 20.2431 18.9655C19.1968 19.2026 17.4795 18.1473 17.176 17.9102C16.9284 17.7343 12.5753 15.0884 10.9779 13.796C10.5466 13.4442 10.0593 12.7407 11.0418 11.9148C13.2462 9.98005 15.89 7.57117 17.4795 6.04172C18.2143 5.33818 18.9492 3.69402 15.882 5.68995C11.529 8.56531 7.23183 11.2724 7.23183 11.2724C7.23183 11.2724 6.24939 11.8613 4.41232 11.3336C2.57524 10.8059 0.42665 10.1024 0.42665 10.1024C0.42665 10.1024 -1.04301 9.22297 1.47298 8.28236L1.48098 8.27471Z" fill="white"/>
</svg>
