<svg width="24" height="18" viewBox="0 0 24 18" fill="none" xmlns="http://www.w3.org/2000/svg">
<path d="M23.2034 2.15015C23.2034 2.15015 23.1453 2.23018 23.1105 2.27592L15.4281 10.8626C14.6041 11.7887 13.4204 12.3147 12.1671 12.3147C10.9253 12.3147 9.73003 11.7887 8.90608 10.8626L1.13076 2.16158C0.991505 2.48172 0.921875 2.82473 0.921875 3.19061V13.035C0.921875 15.5733 3.01077 17.6428 5.59867 17.6428H18.7587C21.335 17.6428 23.4355 15.5847 23.4355 13.035V3.19061C23.4355 2.82473 23.3542 2.47029 23.215 2.15015H23.2034Z" fill="white"/>
<path d="M10.6582 9.33046C11.0412 9.76494 11.575 10.005 12.1669 10.005C12.7587 10.005 13.2926 9.76494 13.6755 9.33046L21.358 0.743771C21.358 0.743771 21.416 0.686602 21.4508 0.663735C21.2303 0.606567 20.9982 0.572266 20.7661 0.572266H3.56762C3.33552 0.572266 3.11503 0.606567 2.89453 0.663735L10.6582 9.34189V9.33046Z" fill="white"/>
</svg>
