<svg width="16" height="16" viewBox="0 0 16 16" fill="none" xmlns="http://www.w3.org/2000/svg">
<g clip-path="url(#clip0_84_1263)">
<path d="M11.225 15.9878C11.0933 15.8073 10.9577 15.6277 10.8288 15.4452C10.4499 14.9073 10.0728 14.3675 9.69478 13.8287C9.41318 13.4283 9.13252 13.027 8.85092 12.6266C8.52635 12.1663 8.19893 11.707 7.87532 11.2457C7.54217 10.7724 7.21187 10.2981 6.87968 9.82471C6.87777 9.82097 6.87204 9.82003 6.87013 9.8191C6.64484 10.0764 6.42147 10.3346 6.19523 10.5909C5.75325 11.0942 5.30936 11.5956 4.86739 12.0989C4.35381 12.6827 3.83928 13.2674 3.32571 13.8521C2.98397 14.2412 2.64317 14.6314 2.30143 15.0215C2.02364 15.3377 1.74585 15.6539 1.46616 15.9691C1.45184 15.986 1.4232 15.9991 1.40029 15.9991C0.940174 16.0009 0.479104 16 0.0189881 16C0.0266249 15.9429 1.57307 14.1767 2.07424 13.6201C2.77586 12.8408 3.46031 12.0475 4.15335 11.2607C4.84638 10.473 5.54038 9.68532 6.23437 8.89856C5.98999 8.55242 5.74562 8.20815 5.50315 7.86201C5.2139 7.44852 4.92753 7.03315 4.63733 6.61966C4.30131 6.14068 3.95956 5.66544 3.62355 5.18739C2.80832 4.02736 1.995 2.86546 1.17882 1.70543C0.855215 1.2461 0.528743 0.788634 0.20418 0.330234C0.139267 0.238555 0.0762639 0.145939 0.0123059 0.053324C-0.0125136 0.0177747 0.00180534 0.00467754 0.0409438 0.00467754C0.124948 0.00374203 0.208953 0.000935508 0.292957 0.000935508C1.76781 0 3.24266 0.000935508 4.71847 0C4.76524 0 4.78815 0.0159036 4.81488 0.0542595C5.00294 0.326492 5.19481 0.594983 5.38478 0.865345C6.0234 1.77372 6.66203 2.68304 7.30065 3.59235C7.73977 4.21727 8.17793 4.84219 8.61609 5.46618C8.70868 5.59902 8.80414 5.72999 8.8996 5.8647C9.03611 5.71034 9.16689 5.5616 9.29767 5.41379C9.585 5.0873 9.87234 4.7608 10.1587 4.43337C10.5635 3.97123 10.9663 3.50816 11.372 3.04695C12.1433 2.17132 12.9165 1.29755 13.6898 0.42285C13.7995 0.298427 13.9074 0.173069 14.0191 0.0495819C14.0372 0.0290008 14.0697 0.0102906 14.0964 0.00935508C14.4697 0.00748407 14.8439 0.00935508 15.2171 0.0102906C15.3002 0.0102906 15.3842 0.0102906 15.4844 0.0102906C15.4663 0.0411624 15.4586 0.0617436 15.4453 0.0767117C15.1312 0.431269 14.8143 0.783021 14.5021 1.13851C14.0582 1.64275 13.6182 2.15073 13.1752 2.65591C12.8564 3.01889 12.5357 3.37999 12.2159 3.74203C11.7882 4.22569 11.3596 4.70935 10.9338 5.19488C10.6188 5.55411 10.3067 5.91709 9.99262 6.27726C9.85897 6.43069 9.72342 6.58317 9.58596 6.73379C9.54873 6.77402 9.53918 6.79086 9.58309 6.84231C9.67951 6.95551 9.75683 7.08273 9.84274 7.20435C10.6475 8.34941 11.4522 9.49354 12.256 10.6386C12.55 11.0568 12.8392 11.4778 13.1332 11.8959C13.3938 12.2664 13.6564 12.6359 13.917 13.0054C14.4162 13.7146 14.9155 14.4237 15.4147 15.1328C15.5971 15.3929 15.7794 15.6539 15.9608 15.9139C15.976 15.9355 15.9856 15.9616 16.0018 15.9935C15.977 15.9953 15.9636 15.9972 15.9503 15.9972C14.4057 15.9963 12.8602 15.9953 11.3157 15.9935C11.2918 15.9935 11.268 15.9916 11.2441 15.9906C11.2384 15.9888 11.2326 15.9869 11.226 15.985L11.225 15.9878ZM14.0258 14.9962C14.0277 14.9897 14.0306 14.9831 14.0325 14.9756C14.0048 14.9447 13.9742 14.9157 13.9504 14.8821C13.6516 14.4611 13.3547 14.0392 13.055 13.6191C12.382 12.6761 11.708 11.7341 11.035 10.792C10.6742 10.2869 10.3143 9.78168 9.95348 9.27744C9.34349 8.42519 8.73159 7.57388 8.12256 6.72163C7.51448 5.87219 6.90831 5.02087 6.30119 4.1705C5.91076 3.62416 5.51938 3.07782 5.12894 2.53055C4.79675 2.0656 4.46455 1.60065 4.13235 1.13664C4.10466 1.09829 4.07984 1.06648 4.0197 1.06742C3.3553 1.07022 2.6909 1.06929 2.02651 1.06929C2.00932 1.06929 1.99119 1.07209 1.9635 1.0749C1.99119 1.11045 2.01314 1.13758 2.03319 1.16564C2.26993 1.49775 2.50476 1.83173 2.7415 2.16383C3.32953 2.98801 3.91852 3.81126 4.5075 4.63451C4.93039 5.22575 5.35423 5.81512 5.77616 6.40636C6.29833 7.13699 6.82049 7.86763 7.34265 8.59826C8.12829 9.69748 8.91488 10.7967 9.70146 11.8959C9.94011 12.2299 10.1778 12.5639 10.4165 12.8979C10.9004 13.5761 11.3854 14.2543 11.8674 14.9335C11.9009 14.9803 11.939 14.9971 11.9925 14.9971C12.6712 14.9971 13.3499 14.9971 14.0277 14.9971L14.0258 14.9962Z" fill="white"/>
</g>
<defs>
<clipPath id="clip0_84_1263">
<rect width="16" height="16" fill="white"/>
</clipPath>
</defs>
</svg>
